<svg width="160" height="160" viewBox="0 0 160 160" fill="none" xmlns="http://www.w3.org/2000/svg">
<g clip-path="url(#clip0_2185_694)">
<path d="M80 160C124.183 160 160 124.183 160 80C160 35.8172 124.183 0 80 0C35.8172 0 0 35.8172 0 80C0 124.183 35.8172 160 80 160Z" fill="#F6F6F6"/>
<path d="M59.5584 116.088L100.694 157.224C134.763 148.138 160 117.097 160 79.9997C160 79.2426 160 78.4855 160 77.7284L127.697 47.9492L59.5584 116.088Z" fill="white"/>
<path d="M82.019 97.918C85.5522 101.451 85.5522 107.508 82.019 111.041L74.7004 118.36C71.1673 121.893 65.1105 121.893 61.5774 118.36L29.5269 86.0568C25.9938 82.5237 25.9938 76.4669 29.5269 72.9338L36.8455 65.6152C40.3787 62.0821 46.4354 62.0821 49.9686 65.6152L82.019 97.918Z" fill="#0F0F0F"/>
<path d="M110.032 42.145C113.565 38.6118 119.622 38.6118 123.155 42.145L130.473 49.4636C134.006 52.9967 134.006 59.0535 130.473 62.5866L74.9528 117.855C71.4196 121.388 65.3628 121.388 61.8297 117.855L54.5111 110.536C50.978 107.003 50.978 100.946 54.5111 97.4131L110.032 42.145Z" fill="#0F0F0F"/>
</g>
<defs>
<clipPath id="clip0_2185_694">
<rect width="160" height="160" fill="white"/>
</clipPath>
</defs>
</svg>
